<svg width="888" height="888" viewBox="0 0 888 888" fill="none" xmlns="http://www.w3.org/2000/svg">
<path d="M222.001 814H666L666.001 888H222.001V814H148.001L148 740H222L222.001 814Z" fill="#D9D9D9"/>
<path d="M814 740H740.001V813.996H666.001V739.996H740V666H814V740Z" fill="#D9D9D9"/>
<path d="M148 740H74V666H0.000976562L0 222H74V148H148V222H222V296H74V666H148V740Z" fill="#D9D9D9"/>
<path d="M814 222H888L888.001 666H814V296H666V222H740V148H814V222Z" fill="#D9D9D9"/>
<path d="M592 444H522V518H374V444H518V370H592V444Z" fill="#D9D9D9"/>
<path d="M374 444H300V370H374V444Z" fill="#D9D9D9"/>
<path d="M296 370H222V296H296V370Z" fill="#D9D9D9"/>
<path d="M666 370H592V296H666V370Z" fill="#D9D9D9"/>
<path d="M222 148H148V74H222V148Z" fill="#D9D9D9"/>
<path d="M740 148H666V74H740V148Z" fill="#D9D9D9"/>
<path d="M666 74H222V0H666V74Z" fill="#D9D9D9"/>
</svg>
