<svg width="888" height="888" viewBox="0 0 888 888" fill="none" xmlns="http://www.w3.org/2000/svg">
<rect x="148" y="74" width="74" height="74" fill="#D9D9D9"/>
<rect x="740.001" y="813.996" width="74" height="74" transform="rotate(180 740.001 813.996)" fill="#D9D9D9"/>
<rect x="74" y="148" width="74" height="74" fill="#D9D9D9"/>
<rect x="74" y="222" width="74" height="74" fill="#D9D9D9"/>
<rect x="148" y="222" width="74" height="74" fill="#D9D9D9"/>
<rect x="740" y="222" width="74" height="74" fill="#D9D9D9"/>
<rect x="666" y="222" width="74" height="74" fill="#D9D9D9"/>
<rect x="222" y="296" width="74" height="74" fill="#D9D9D9"/>
<rect x="592" y="296" width="74" height="74" fill="#D9D9D9"/>
<rect x="300" y="370" width="74" height="74" fill="#D9D9D9"/>
<rect x="374" y="444" width="74" height="74" fill="#D9D9D9"/>
<rect x="518" y="370" width="74" height="74" fill="#D9D9D9"/>
<rect x="448" y="444" width="74" height="74" fill="#D9D9D9"/>
<rect x="814" y="740" width="74" height="74" transform="rotate(180 814 740)" fill="#D9D9D9"/>
<rect y="222" width="74" height="74" fill="#D9D9D9"/>
<rect x="888.001" y="666" width="74" height="74" transform="rotate(180 888.001 666)" fill="#D9D9D9"/>
<rect y="296" width="74" height="74" fill="#D9D9D9"/>
<rect x="888" y="592" width="74" height="74" transform="rotate(180 888 592)" fill="#D9D9D9"/>
<rect y="370" width="74" height="74" fill="#D9D9D9"/>
<rect y="444" width="74" height="74" fill="#D9D9D9"/>
<rect x="814" y="222" width="74" height="74" fill="#D9D9D9"/>
<rect x="74.0005" y="666" width="74" height="74" transform="rotate(180 74.0005 666)" fill="#D9D9D9"/>
<rect x="814" y="296" width="74" height="74" fill="#D9D9D9"/>
<rect x="74" y="592" width="74" height="74" transform="rotate(180 74 592)" fill="#D9D9D9"/>
<rect x="814" y="370" width="74" height="74" fill="#D9D9D9"/>
<rect x="814" y="444" width="74" height="74" fill="#D9D9D9"/>
<rect x="222" width="74" height="74" fill="#D9D9D9"/>
<rect x="666" y="888" width="74" height="74" transform="rotate(180 666 888)" fill="#D9D9D9"/>
<rect x="296" width="74" height="74" fill="#D9D9D9"/>
<rect x="592" y="888" width="74" height="74" transform="rotate(180 592 888)" fill="#D9D9D9"/>
<rect x="370" width="74" height="74" fill="#D9D9D9"/>
<rect x="518" y="888" width="74" height="74" transform="rotate(180 518 888)" fill="#D9D9D9"/>
<rect x="444" width="74" height="74" fill="#D9D9D9"/>
<rect x="444" y="888" width="74" height="74" transform="rotate(180 444 888)" fill="#D9D9D9"/>
<rect x="518" width="74" height="74" fill="#D9D9D9"/>
<rect x="370" y="888" width="74" height="74" transform="rotate(180 370 888)" fill="#D9D9D9"/>
<rect x="592" width="74" height="74" fill="#D9D9D9"/>
<rect x="296" y="888" width="74" height="74" transform="rotate(180 296 888)" fill="#D9D9D9"/>
<rect x="666" y="74" width="74" height="74" fill="#D9D9D9"/>
<rect x="222" y="814" width="74" height="74" transform="rotate(180 222 814)" fill="#D9D9D9"/>
<rect x="740" y="148" width="74" height="74" fill="#D9D9D9"/>
<rect x="148" y="740" width="74" height="74" transform="rotate(180 148 740)" fill="#D9D9D9"/>
</svg>
