<svg width="888" height="888" viewBox="0 0 888 888" fill="none" xmlns="http://www.w3.org/2000/svg">
<rect x="148" y="74" width="74" height="74" fill="#D9D9D9"/>
<rect x="740.001" y="813.996" width="74" height="74" transform="rotate(180 740.001 813.996)" fill="#D9D9D9"/>
<rect x="74" y="148" width="74" height="74" fill="#D9D9D9"/>
<rect x="814" y="740" width="74" height="74" transform="rotate(180 814 740)" fill="#D9D9D9"/>
<rect y="222" width="74" height="74" fill="#D9D9D9"/>
<rect x="888.001" y="666" width="74" height="74" transform="rotate(180 888.001 666)" fill="#D9D9D9"/>
<rect y="296" width="74" height="74" fill="#D9D9D9"/>
<rect x="888" y="592" width="74" height="74" transform="rotate(180 888 592)" fill="#D9D9D9"/>
<rect y="370" width="74" height="74" fill="#D9D9D9"/>
<rect y="444" width="74" height="74" fill="#D9D9D9"/>
<rect x="814" y="222" width="74" height="74" fill="#D9D9D9"/>
<rect x="74.0005" y="666" width="74" height="74" transform="rotate(180 74.0005 666)" fill="#D9D9D9"/>
<rect x="814" y="296" width="74" height="74" fill="#D9D9D9"/>
<rect x="74" y="592" width="74" height="74" transform="rotate(180 74 592)" fill="#D9D9D9"/>
<rect x="814" y="370" width="74" height="74" fill="#D9D9D9"/>
<rect x="814" y="444" width="74" height="74" fill="#D9D9D9"/>
<rect x="222" width="74" height="74" fill="#D9D9D9"/>
<rect x="666" y="888" width="74" height="74" transform="rotate(180 666 888)" fill="#D9D9D9"/>
<rect x="296" width="74" height="74" fill="#D9D9D9"/>
<rect x="592" y="888" width="74" height="74" transform="rotate(180 592 888)" fill="#D9D9D9"/>
<rect x="370" width="74" height="74" fill="#D9D9D9"/>
<rect x="518" y="888" width="74" height="74" transform="rotate(180 518 888)" fill="#D9D9D9"/>
<rect x="444" width="74" height="74" fill="#D9D9D9"/>
<rect x="444" y="888" width="74" height="74" transform="rotate(180 444 888)" fill="#D9D9D9"/>
<rect x="518" width="74" height="74" fill="#D9D9D9"/>
<rect x="370" y="888" width="74" height="74" transform="rotate(180 370 888)" fill="#D9D9D9"/>
<rect x="592" width="74" height="74" fill="#D9D9D9"/>
<rect x="296" y="888" width="74" height="74" transform="rotate(180 296 888)" fill="#D9D9D9"/>
<rect x="662" y="703" width="74" height="74" transform="rotate(180 662 703)" fill="#D9D9D9"/>
<rect x="662" y="629" width="74" height="74" transform="rotate(180 662 629)" fill="#D9D9D9"/>
<rect x="662" y="555" width="74" height="74" transform="rotate(180 662 555)" fill="#D9D9D9"/>
<rect x="662" y="481" width="74" height="74" transform="rotate(180 662 481)" fill="#D9D9D9"/>
<rect x="662" y="407" width="74" height="74" transform="rotate(180 662 407)" fill="#D9D9D9"/>
<rect x="662" y="333" width="74" height="74" transform="rotate(180 662 333)" fill="#D9D9D9"/>
<rect x="662" y="259" width="74" height="74" transform="rotate(180 662 259)" fill="#D9D9D9"/>
<rect x="588" y="259" width="74" height="74" transform="rotate(180 588 259)" fill="#D9D9D9"/>
<rect x="514" y="333" width="74" height="74" transform="rotate(180 514 333)" fill="#D9D9D9"/>
<rect x="440" y="333" width="74" height="74" transform="rotate(180 440 333)" fill="#D9D9D9"/>
<rect x="366" y="407" width="74" height="74" transform="rotate(180 366 407)" fill="#D9D9D9"/>
<rect x="292" y="481" width="74" height="74" transform="rotate(180 292 481)" fill="#D9D9D9"/>
<rect x="218" y="555" width="74" height="74" transform="rotate(180 218 555)" fill="#D9D9D9"/>
<rect x="366" y="629" width="74" height="74" transform="rotate(180 366 629)" fill="#D9D9D9"/>
<rect x="440" y="555" width="74" height="74" transform="rotate(180 440 555)" fill="#D9D9D9"/>
<rect x="292" y="555" width="74" height="74" transform="rotate(180 292 555)" fill="#D9D9D9"/>
<rect x="588" y="629" width="74" height="74" transform="rotate(180 588 629)" fill="#D9D9D9"/>
<rect x="514" y="629" width="74" height="74" transform="rotate(180 514 629)" fill="#D9D9D9"/>
<rect x="666" y="74" width="74" height="74" fill="#D9D9D9"/>
<rect x="222" y="814" width="74" height="74" transform="rotate(180 222 814)" fill="#D9D9D9"/>
<rect x="740" y="148" width="74" height="74" fill="#D9D9D9"/>
<rect x="148" y="740" width="74" height="74" transform="rotate(180 148 740)" fill="#D9D9D9"/>
</svg>
