<svg width="888" height="888" viewBox="0 0 888 888" fill="none" xmlns="http://www.w3.org/2000/svg">
<path d="M222.001 814H666L666.001 888H222.001V814H148.001L148 740H222L222.001 814Z" fill="#D9D9D9"/>
<path d="M814 740H740.001V813.996H666.001V739.996H740V666H814V740Z" fill="#D9D9D9"/>
<path d="M148 740H74V666H0.000976562L0 222H74V666H148V740Z" fill="#D9D9D9"/>
<path d="M662 703H588V629H440V555H588V259H514V185H662V703Z" fill="#D9D9D9"/>
<path d="M888.001 666H814V222H888L888.001 666Z" fill="#D9D9D9"/>
<path d="M366 629H292V555H366V629Z" fill="#D9D9D9"/>
<path d="M292 555H144V481H218V407H292V555Z" fill="#D9D9D9"/>
<path d="M440 555H366V481H440V555Z" fill="#D9D9D9"/>
<path d="M366 407H292V333H366V407Z" fill="#D9D9D9"/>
<path d="M514 333H366V259H514V333Z" fill="#D9D9D9"/>
<path d="M148 222H74V148H148V222Z" fill="#D9D9D9"/>
<path d="M814 222H740V148H814V222Z" fill="#D9D9D9"/>
<path d="M222 148H148V74H222V148Z" fill="#D9D9D9"/>
<path d="M740 148H666V74H740V148Z" fill="#D9D9D9"/>
<path d="M666 74H222V0H666V74Z" fill="#D9D9D9"/>
</svg>
