<svg width="888" height="888" viewBox="0 0 888 888" fill="none" xmlns="http://www.w3.org/2000/svg">
<path d="M666.001 888H222.001L222 814H666.001V888Z" fill="#D9D9D9"/>
<path d="M222 814H148.001L148 740H222V814Z" fill="#D9D9D9"/>
<path d="M814 740H740.001V813.996H666.001V739.996H740V666H814V740Z" fill="#D9D9D9"/>
<path d="M148 740H74L74.001 666H148V740Z" fill="#D9D9D9"/>
<path d="M74.001 666H0.000976562L0 222H74L74.001 666Z" fill="#D9D9D9"/>
<path d="M888.001 666H814V222H888L888.001 666Z" fill="#D9D9D9"/>
<path d="M481 537H592V611H296V537H407V278H481V537Z" fill="#D9D9D9"/>
<path d="M296 537H222V278H296V537Z" fill="#D9D9D9"/>
<path d="M666 537H592V278H666V537Z" fill="#D9D9D9"/>
<path d="M148 222H74V148H148V222Z" fill="#D9D9D9"/>
<path d="M814 222H740V148H814V222Z" fill="#D9D9D9"/>
<path d="M222 148H148V74H222V148Z" fill="#D9D9D9"/>
<path d="M740 148H666V74H740V148Z" fill="#D9D9D9"/>
<path d="M666 74H222V0H666V74Z" fill="#D9D9D9"/>
</svg>
